<?xml version="1.0" encoding="iso-8859-1"?>
<!-- Generator: Adobe Illustrator 19.0.0, SVG Export Plug-In . SVG Version: 6.00 Build 0)  -->
<svg version="1.1" id="Capa_1" xmlns="http://www.w3.org/2000/svg" xmlns:xlink="http://www.w3.org/1999/xlink" x="0px" y="0px"
	 viewBox="0 0 512 512" style="enable-background:new 0 0 512 512;" xml:space="preserve">
<path style="fill:#FE9923;" d="M390.01,152.009h-89.993V46.018c0-8.283,6.715-14.999,14.999-14.999h59.995
	c8.283,0,14.999,6.715,14.999,14.999V152.009z"/>
<path style="fill:#FEDBAB;" d="M390.01,203.904v233.082c0,8.398-6.598,14.999-14.999,14.999H75.036c-8.4,0-14.999-6.6-14.999-14.999
	V203.904L225.024,52.116l1.5-1.5L390.01,203.904z"/>
<path style="fill:#FEC478;" d="M390.01,203.904v233.082c0,8.398-6.598,14.999-14.999,14.999H225.024V52.116l1.5-1.5L390.01,203.904z
	"/>
<path style="fill:#FD003A;" d="M443.106,231.203c-10.8,12.899-29.698,14.398-42.298,3.898L225.023,71.015L49.238,235.101
	c-12.6,10.5-31.497,8.7-42.298-3.898c-10.498-12.6-8.999-31.498,3.9-42.298L205.824,6.921c5.4-4.501,12.3-6.898,19.198-6.898
	s13.8,2.399,19.198,6.898l194.984,181.985C452.105,199.704,453.605,218.603,443.106,231.203z"/>
<path style="fill:#E50027;" d="M443.106,231.203c-10.8,12.899-29.698,14.398-42.298,3.898L225.023,71.015V0.021
	c6.898,0,13.8,2.399,19.198,6.898l194.984,181.985C452.105,199.704,453.605,218.603,443.106,231.203z"/>
<path style="fill:#0A4EAF;" d="M315.016,212.004H135.031c-8.4,0-14.999,6.598-14.999,14.999v89.993
	c0,8.398,6.598,14.999,14.999,14.999h179.985c8.4,0,14.999-6.6,14.999-14.999v-89.993
	C330.015,218.603,323.417,212.004,315.016,212.004z"/>
<path style="fill:#063E8B;" d="M330.015,227.003v89.993c0,8.398-6.598,14.999-14.999,14.999h-89.993v-119.99h89.993
	C323.417,212.004,330.015,218.603,330.015,227.003z"/>
<path style="fill:#1DE8F1;" d="M150.03,242.002v59.995h149.988v-59.995H150.03z"/>
<rect x="225.022" y="242.001" style="fill:#1BD9DE;" width="74.994" height="59.995"/>
<path style="fill:#0A4EAF;" d="M240.023,227.003v89.993c0,8.398-6.598,14.999-14.999,14.999s-14.999-6.6-14.999-14.999v-89.993
	c0-8.4,6.598-14.999,14.999-14.999S240.023,218.603,240.023,227.003z"/>
<path style="fill:#063E8B;" d="M240.023,227.003v89.993c0,8.398-6.598,14.999-14.999,14.999v-119.99
	C233.424,212.004,240.023,218.603,240.023,227.003z"/>
<path style="fill:#E1E4FB;" d="M482.003,316.996v29.998c0,8.398-6.598,14.999-14.999,14.999h-44.996v-44.996
	c0-24.899-20.097-44.996-44.996-44.996c-24.899,0-44.996,20.097-44.996,44.996v44.996h-44.996c-8.4,0-14.999-6.6-14.999-14.999
	v-29.998c0-57.895,47.096-104.991,104.991-104.991S482.003,259.1,482.003,316.996z"/>
<path style="fill:#C5C9F7;" d="M482.003,316.996v29.998c0,8.398-6.598,14.999-14.999,14.999h-44.996v-44.996
	c0-24.899-20.097-44.996-44.996-44.996v-59.995C434.907,212.004,482.003,259.1,482.003,316.996z"/>
<path style="fill:#17ACE8;" d="M467.004,331.994H287.019c-24.899,0-44.996,20.097-44.996,44.996v89.993
	c0,24.897,20.097,44.996,44.996,44.996h179.985c24.899,0,44.996-20.099,44.996-44.996v-89.993
	C512,352.092,491.902,331.994,467.004,331.994z"/>
<path style="fill:#1689FC;" d="M512,376.991v89.993c0,24.897-20.097,44.996-44.996,44.996h-89.993V331.994h89.993
	C491.902,331.994,512,352.092,512,376.991z"/>
<path style="fill:#0A4EAF;" d="M392.01,406.988v29.998c0,8.398-6.598,14.999-14.999,14.999c-8.4,0-14.999-6.6-14.999-14.999v-29.998
	c0-8.4,6.598-14.999,14.999-14.999C385.412,391.99,392.01,398.588,392.01,406.988z"/>
<g>
</g>
<g>
</g>
<g>
</g>
<g>
</g>
<g>
</g>
<g>
</g>
<g>
</g>
<g>
</g>
<g>
</g>
<g>
</g>
<g>
</g>
<g>
</g>
<g>
</g>
<g>
</g>
<g>
</g>
</svg>
