<svg id="Layer_1" enable-background="new 0 0 511.2 511.2" height="512" viewBox="0 0 511.2 511.2" width="512" xmlns="http://www.w3.org/2000/svg"><g><g id="XMLID_618_"><path d="m200.791 142.671-11.842-15.337-33.167 6.974c-7.847 1.65-13.61 8.362-14.054 16.368l-3.94 71.086c-.542 9.777 6.944 18.142 16.721 18.683.335.019.666.028.997.028 9.342 0 17.164-7.306 17.687-16.748l3.187-57.515 18.164-3.819z" fill="#ffb69e"/></g><g id="XMLID_101_"><path d="m261.277 130.244c-2.015-9.581-11.409-15.718-20.999-13.702l-51.33 10.792 5.596 35.057 53.031-11.15c9.582-2.014 15.716-11.415 13.702-20.997z" fill="#fa5565"/></g><g><path d="m109.109 376.542h-32.71c-4.126 0-7.47-3.344-7.47-7.47s3.344-7.47 7.47-7.47h32.71c6.383 0 12.26-2.915 16.122-7.997s5.097-11.524 3.389-17.674l-15.836-56.997c-6.192-22.283 3.493-45.889 23.55-57.405l76.603-43.982c3.577-2.054 8.143-.818 10.197 2.759 2.054 3.578.819 8.143-2.758 10.197l-76.603 43.982c-14.133 8.114-20.957 24.748-16.594 40.45l15.836 56.997c2.969 10.687.823 21.882-5.889 30.712-6.713 8.833-16.925 13.898-28.017 13.898z" fill="#55879b"/></g><g><path d="m511.2 481.025c0 5.501-4.459 9.96-9.96 9.96h-38.999c-3.765 0-7.208-2.123-8.899-5.487l-134.92-268.479c-2.469-4.915-.487-10.901 4.427-13.371 4.912-2.471 10.901-.488 13.371 4.427l132.162 262.991h32.858c5.501 0 9.96 4.459 9.96 9.959z" fill="#6c9baa"/></g><g><g id="XMLID_626_"><path d="m148.102 488.81c-11.312-5.343-16.152-18.845-10.809-30.158l39.762-84.188v-87.205c0-12.511 10.142-22.653 22.653-22.653s22.653 10.142 22.653 22.653v92.286c0 3.345-.741 6.649-2.17 9.675l-41.932 88.782c-5.349 11.328-18.859 16.144-30.157 10.808z" fill="#ffb69e"/></g><g id="XMLID_624_"><path d="m268.893 490.98c-12.067 0-22.098-9.517-22.616-21.689l-3.966-93.097-22.023-83.134c-3.204-12.094 4.002-24.495 16.097-27.699s24.495 4.003 27.698 16.097l22.653 85.513c.419 1.581.665 3.203.735 4.837l4.071 95.555c.532 12.499-9.169 23.064-21.669 23.597-.327.014-.655.02-.98.02z" fill="#ffb69e"/></g><path id="XMLID_623_" d="m299.225 139.12c-.067-11.744-7.834-21.599-18.554-23.498-13.805-2.445-23.515-4.164-38.837-6.878-10.742-1.902-21.391 4.668-25.495 15.697l-67.555 181.542c-1.091 2.933-.917 6.202.472 8.912s3.85 4.583 6.706 5.089c29.014 5.138 103.824 18.386 132.818 23.52 2.858.506 5.812-.4 8.048-2.469 2.237-2.069 3.52-5.084 3.502-8.215z" fill="#ff6473"/><ellipse cx="282.739" cy="59.346" fill="#ffb69e" rx="39.124" ry="39.124" transform="matrix(.707 -.707 .707 .707 40.849 217.309)"/><g id="XMLID_108_"><path d="m372.352 225.717-61.055-39.727-17.206-23.599-16.531 8.798-11.857 12.453 18.865 25.874c1.27 1.743 2.849 3.239 4.656 4.416l63.789 41.506c8.186 5.326 19.175 3.04 24.53-5.191 5.34-8.207 3.015-19.19-5.191-24.53z" fill="#ffb69e"/><path d="m294.09 162.391-25.873-35.486c-5.768-7.912-16.858-9.65-24.77-3.881s-9.649 16.859-3.881 24.771l26.136 35.847z" fill="#fa5565"/></g></g><g><path d="m80.007 337.041c-1.497-9.167-9.417-15.898-18.705-15.898h-23.194c-9.288 0-17.208 6.731-18.705 15.898l-4.375 26.782h69.354z" fill="#a5c8cd"/><g fill="#3c5064"><path d="m27.348 466.345c-6.804 0-12.32 5.516-12.32 12.32s5.516 12.32 12.32 12.32 12.32-5.516 12.32-12.32-5.516-12.32-12.32-12.32z"/><path d="m72.062 466.345c-6.804 0-12.32 5.516-12.32 12.32s5.516 12.32 12.32 12.32 12.32-5.516 12.32-12.32-5.515-12.32-12.32-12.32z"/></g><path d="m83.556 341.406h-67.701c-8.757 0-15.855 7.099-15.855 15.855v102.041c0 8.756 7.098 15.855 15.855 15.855h67.701c8.756 0 15.855-7.098 15.855-15.855v-102.041c-.001-8.756-7.099-15.855-15.855-15.855z" fill="#6c9baa"/><path d="m69.318 366.838h-39.032c-6.223 0-11.269 5.045-11.269 11.269v7.237h61.57v-7.237c0-6.224-5.045-11.269-11.269-11.269z" fill="#55879b"/></g></g></svg>