<svg height="512" viewBox="0 0 58 58" width="512" xmlns="http://www.w3.org/2000/svg"><g id="Page-1" fill="none" fill-rule="evenodd"><g id="029---Chlorinated-Water" fill-rule="nonzero"><path id="Shape" d="m54.13 52h-14.18c.9781943-1.5143598 1.6256463-3.2181808 1.9-5h9.71l-7.44-29h-30.24l-7.44 29h9.71c.2743537 1.7818192.9218057 3.4856402 1.9 5h-14.18c-.92878695.0016296-1.80595305-.4270271-2.37536081-1.1608s-.76683771-1.6899049-.53463919-2.5892l8.46-33c.34497819-1.324811 1.5410099-2.2495778 2.91-2.25h33.34c1.3689901.0004222 2.5650218.925189 2.91 2.25l8.46 33c.2321985.8992951.0347686 1.8554271-.5346392 2.5892s-1.4465739 1.1624296-2.3753608 1.1608z" fill="#f3d55b"/><path id="Shape" d="m33 14h-8c-.5522847 0-1-.4477153-1-1s.4477153-1 1-1h8c.5522847 0 1 .4477153 1 1s-.4477153 1-1 1z" fill="#95a5a5"/><path id="Shape" d="m6.44 47 7.44-29h7.12 16 7.12l7.44 29z" fill="#2980ba"/><path id="Shape" d="m33 19h-8c-.5522847 0-1-.4477153-1-1s.4477153-1 1-1h8c.5522847 0 1 .4477153 1 1s-.4477153 1-1 1z" fill="#95a5a5"/><path id="Shape" d="m33 24h-8c-.5522847 0-1-.4477153-1-1s.4477153-1 1-1h8c.5522847 0 1 .4477153 1 1s-.4477153 1-1 1z" fill="#95a5a5"/><path id="Shape" d="m25 7v20c0 1.1045695-.8954305 2-2 2s-2-.8954305-2-2v-20c0-1.83-.75-2.9-1.04-3.01-.7055054.83687527-1.0506946 1.91918716-.96 3.01 0 1.1045695-.8954305 2-2 2s-2-.8954305-2-2c0-3.99 2.15-7 5-7s5 3.01 5 7z" fill="#bdc3c7"/><path id="Shape" d="m43 7c0 1.1045695-.8954305 2-2 2s-2-.8954305-2-2c0-1.83-.75-2.9-1.04-3.01-.7055054.83687527-1.0506946 1.91918716-.96 3.01v20c0 1.1045695-.8954305 2-2 2s-2-.8954305-2-2v-20c0-3.99 2.15-7 5-7s5 3.01 5 7z" fill="#bdc3c7"/><path id="Shape" d="m42 45c.0009165.6695105-.0492289 1.338116-.15 2-.2743537 1.7818192-.9218057 3.4856402-1.9 5-2.3867452 3.7377659-6.5152005 5.9998927-10.95 5.9998927s-8.5632548-2.2621268-10.95-5.9998927c-.9781943-1.5143598-1.6256463-3.2181808-1.9-5-.1007711-.661884-.1509165-1.3304895-.15-2 0-7.1797017 5.8202983-13 13-13s13 5.8202983 13 13z" fill="#65ddb9"/><g fill="#fff"><path id="Shape" d="m26 53c-2.9035654-.1577789-5.136134-2.6283393-5-5.533v-4.934c-.136134-2.9046607 2.0964346-5.3752211 5-5.533 2.9035654.1577789 5.136134 2.6283393 5 5.533 0 .5522847-.4477153 1-1 1s-1-.4477153-1-1c.1344625-1.799921-1.2020866-3.3739304-3-3.533-1.7979134.1590696-3.1344625 1.733079-3 3.533v4.934c-.1344625 1.799921 1.2020866 3.3739304 3 3.533 1.7979134-.1590696 3.1344625-1.733079 3-3.533 0-.5522847.4477153-1 1-1s1 .4477153 1 1c.136134 2.9046607-2.0964346 5.3752211-5 5.533z"/><path id="Shape" d="m34 53c-.5522847 0-1-.4477153-1-1v-14c0-.5522847.4477153-1 1-1s1 .4477153 1 1v14c0 .5522847-.4477153 1-1 1z"/></g></g></g></svg>